<svg width="296" height="211" viewBox="0 0 296 211" fill="none" xmlns="http://www.w3.org/2000/svg">
<g filter="url(#filter0_d_88_155)">
<path d="M175.515 -3.34144C183.606 5.09558 189.947 15.818 190.008 27.8122L192.221 27.8803C193.293 15.1659 187.084 3.04991 179.307 -6.6493L175.573 -3.38237L175.515 -3.34144Z" fill="#7FB812"/>
<path d="M206.774 20.7156C217.859 26.6719 230.184 31.572 243.154 31.4227L243.124 29.1927C230.769 28.9902 219.027 23.935 208.367 17.848L206.774 20.7156Z" fill="#7FB812"/>
<path d="M196.205 23.2249C196.951 23.5815 197.638 23.9701 198.231 24.3327C198.608 24.5851 198.951 24.7795 199.142 24.9799C199.868 25.575 200.006 25.9558 199.65 26.1484C201.478 26.9075 203.438 27.899 204.672 28.979C205.965 30.0269 206.15 30.7626 205.615 31.0516C207.291 31.8167 208.921 32.9106 209.976 34.0869C210.999 35.2051 211.098 36.0631 210.444 36.4162C211.909 37.2195 213.387 38.3195 214.172 39.5661C214.957 40.8127 214.844 41.7089 214.131 42.0941C215.444 42.9035 216.651 44.0737 217.225 45.3585C217.799 46.6433 217.448 47.6679 216.675 48.0852C217.837 48.9007 218.833 50.1091 219.195 51.4321C219.498 52.7872 218.996 53.8178 218.197 54.3254C219.266 55.1148 220.051 56.3614 220.142 57.7546C220.234 59.1479 219.613 60.2428 218.635 60.8466C219.552 61.6421 220.185 62.8948 220.066 64.3262C219.946 65.7577 219.146 66.9488 218.136 67.4945C218.961 68.264 219.442 69.5228 219.171 70.9603C218.899 72.3978 217.948 73.5951 216.851 74.2631C217.584 75.0066 217.973 76.2393 217.49 77.715C217.066 79.1586 215.963 80.3619 214.808 81.062C215.507 81.7473 215.684 83.0183 215.109 84.468C214.534 85.9176 213.312 87.1851 212.064 87.8592C212.671 88.5186 212.815 89.7314 212.088 91.1871C211.361 92.6429 210.106 93.8522 208.739 94.5906C209.346 95.2499 209.366 96.3786 208.546 97.8083C207.727 99.238 206.32 100.453 204.953 101.192C205.527 101.793 205.454 102.896 204.542 104.299C203.63 105.703 202.223 106.918 200.764 107.631C201.305 108.174 201.199 109.218 200.254 110.564C199.309 111.909 197.81 113.099 196.35 113.811C196.858 114.296 196.719 115.283 195.741 116.57C194.764 117.857 193.172 119.021 191.713 119.733C192.188 120.16 192.016 121.088 190.972 122.259C189.928 123.431 188.336 124.594 186.818 125.338C187.319 125.675 187.114 126.545 186.037 127.658C184.961 128.771 183.303 129.818 181.844 130.531C182.312 130.809 182.133 131.589 180.991 132.586C180.377 133.146 179.67 133.679 178.897 134.096C178.184 134.482 177.411 134.899 176.698 135.284C197.678 90.6939 167.85 48.7912 196.166 23.0184L196.205 23.2249Z" fill="#4A8216"/>
<path d="M177.046 135.757C176.441 135.242 175.921 134.606 175.308 133.943C174.755 133.248 174.169 132.496 173.827 131.765C173.058 130.425 173.139 129.622 173.714 129.545C172.497 128.367 171.323 126.861 170.673 125.458C170.023 124.055 170.071 123.194 170.672 123.027C169.513 121.818 168.34 120.312 167.775 118.788C167.151 117.295 167.317 116.371 167.944 116.114C166.786 114.905 165.731 113.337 165.167 111.812C164.602 110.288 164.827 109.332 165.48 108.986C164.355 107.835 163.327 106.177 162.88 104.589C162.434 103.002 162.686 101.957 163.372 101.669C162.307 100.486 161.311 98.8861 160.924 97.2674C160.538 95.6486 160.882 94.6299 161.594 94.2522C160.562 93.1278 159.626 91.4964 159.391 89.873C159.097 88.281 159.467 87.1726 160.239 86.7634C159.207 85.639 158.456 84.0611 158.222 82.4377C158.02 80.8726 158.543 79.7595 159.314 79.3502C158.375 78.2526 157.658 76.733 157.609 75.1632C157.559 73.5934 158.175 72.507 159.005 72.0663C158.099 71.0269 157.535 69.5027 157.552 68.0494C157.596 66.5063 158.304 65.4468 159.287 65.0014C158.473 63.9888 157.916 62.6125 158.145 61.123C158.374 59.6335 159.208 58.6591 160.251 58.1822C159.504 57.2861 159.099 55.9052 159.488 54.559C159.876 53.2128 160.863 52.2336 161.998 51.7835C161.285 50.9457 161.039 49.7081 161.613 48.4155C162.188 47.1229 163.393 46.2555 164.62 45.8322C164.034 45.0795 163.914 43.9269 164.648 42.7776C165.382 41.6283 166.773 40.8146 168.127 40.4763C167.573 39.7818 167.614 38.7725 168.566 37.7351C169.519 36.6976 171.036 35.9689 172.575 35.6842C172.056 35.048 172.255 34.182 173.368 33.2879C174.48 32.3938 176.275 31.7454 177.941 31.5458C177.488 31.0261 177.814 30.2452 179.179 29.5211C180.544 28.7971 182.498 28.2921 184.35 28.146C183.93 27.6846 184.416 27.0469 185.973 26.5245C187.498 25.9437 189.705 25.6088 191.682 25.5478C191.363 25.2611 191.652 24.9557 192.55 24.6315C192.847 24.4741 193.21 24.4333 193.692 24.3294C194.386 24.1894 195.172 24.0762 195.959 23.963C167.758 49.4118 197.982 91.4392 177.198 135.752C176.775 135.825 177.543 135.949 177.198 135.752L177.046 135.757Z" fill="#7FB812"/>
<path d="M181.1 45.576C170.851 46.9782 162.862 58.5088 161.668 68.1719C166.502 59.3098 172.027 50.5407 181.1 45.576Z" fill="#4A8216"/>
<path d="M183.744 70.3059C172.996 72.419 166.637 86.3783 168.867 96.022C170.584 86.2401 174.789 75.8203 183.744 70.3059Z" fill="#4A8216"/>
<path d="M187.691 96.8308C179.535 97.3558 174.098 108.135 176.387 115.167C178.193 107.975 181.118 100.952 187.691 96.8308Z" fill="#4A8216"/>
<path d="M183.477 30.7534C192.985 35.646 200.148 42.151 204.222 51.6298C204.136 41.5677 193.886 31.9882 183.477 30.7534Z" fill="#7FB812"/>
<path d="M182.122 56.2367C193.293 61.6939 201.988 69.5174 206.472 80.7124C206.013 68.9935 194.285 58.067 182.122 56.2367Z" fill="#7FB812"/>
<path d="M185.548 82.6087C194.09 89.627 197.421 98.5252 198.703 108.28C201.529 99.1906 196.104 86.4786 185.548 82.6087Z" fill="#7FB812"/>
<path d="M110.665 -95.6852C111.548 -13.8732 219.498 -1.16663 240.494 70.4694L243.422 69.5955C224.271 -3.09605 118.209 -17.4073 118.569 -95.7747L110.665 -95.6852Z" fill="#7FB812"/>
<path d="M240.539 55.5545C241.128 55.6415 241.682 55.6701 242.153 55.8159C242.495 55.874 242.778 55.9615 242.966 56.0198C243.626 56.2238 243.769 56.4578 243.663 56.6629C245.076 56.7196 246.596 56.9519 247.763 57.3602C248.93 57.7686 249.274 58.2073 248.992 58.5003C250.288 58.6158 251.69 58.9067 252.716 59.4616C253.707 59.958 253.968 60.5138 253.723 60.8654C254.901 61.0396 256.162 61.4771 257.036 62.0322C257.886 62.6751 258.088 63.2603 257.819 63.6997C258.88 63.9325 260.024 64.4288 260.756 65.1304C261.489 65.832 261.61 66.5344 261.223 67.0326C262.225 67.2947 263.251 67.8496 263.808 68.6393C264.364 69.429 264.403 70.2486 264.016 70.7467C264.959 71.0382 265.809 71.6812 266.307 72.5002C266.84 73.3777 266.667 74.2269 266.257 74.8129C267.106 75.0752 267.839 75.7769 268.196 76.7424C268.553 77.708 268.415 78.6157 267.888 79.2604C268.678 79.5521 269.352 80.283 269.556 81.2488C269.795 82.2731 269.54 83.2394 269.048 83.9426C269.779 84.2637 270.3 84.9949 270.481 86.0485C270.662 87.1021 270.289 88.1271 269.739 88.8597C270.375 89.1516 270.896 89.8828 270.96 90.9951C271.023 92.1074 270.591 93.1618 270.041 93.8943C270.678 94.1862 271.046 94.9176 271.05 96.0592C271.019 97.1424 270.564 98.2846 269.955 99.0465C270.498 99.3093 270.866 100.041 270.776 101.153C270.686 102.266 270.137 103.379 269.528 104.141C270.071 104.403 270.344 105.106 270.195 106.247C270.011 107.331 269.462 108.444 268.794 109.235C269.302 109.439 269.516 110.171 269.332 111.254C269.148 112.338 268.505 113.422 267.778 114.242C268.285 114.446 268.464 115.12 268.186 116.174C267.908 117.228 267.264 118.312 266.538 119.132C267.009 119.278 267.153 119.893 266.816 120.976C266.502 121.972 265.8 123.085 265.073 123.906C265.45 124.022 265.594 124.637 265.244 125.574C264.895 126.511 264.157 127.566 263.372 128.416C263.749 128.533 263.822 129.03 263.472 129.967C263.239 130.465 262.911 130.934 262.583 131.403C262.255 131.872 261.892 132.282 261.493 132.634C261.714 98.9692 230.129 78.7523 240.575 55.613L240.539 55.5545Z" fill="#4A8216"/>
<path d="M262.002 134.424C261.492 134.218 260.946 133.954 260.364 133.631C259.781 133.308 259.258 132.956 258.792 132.575C257.898 131.871 257.725 131.345 258.041 131.113C256.89 130.613 255.689 129.908 254.853 129.176C253.981 128.385 253.809 127.859 254.087 127.569C252.995 127.04 251.794 126.335 250.981 125.515C250.168 124.695 249.981 124.024 250.296 123.792C249.204 123.262 248.025 122.47 247.212 121.651C246.421 120.743 246.235 120.072 246.572 119.752C245.48 119.223 244.36 118.402 243.569 117.495C242.778 116.587 242.65 115.887 243.009 115.48C242.012 114.98 240.856 114.101 240.123 113.165C239.391 112.228 239.285 111.44 239.645 111.033C238.647 110.534 237.586 109.684 236.912 108.719C236.296 107.725 236.191 106.937 236.551 106.53C235.553 106.03 234.587 105.21 233.971 104.216C233.356 103.221 233.367 102.376 233.727 101.969C232.824 101.498 231.857 100.678 231.359 99.6261C230.838 98.6616 230.909 97.7868 231.291 97.2924C230.388 96.8222 229.574 96.0024 229.171 94.98C228.767 93.9575 228.874 93.1412 229.373 92.5888C228.565 92.1482 227.81 91.2995 227.501 90.3066C227.192 89.3136 227.415 88.4394 227.951 87.9456C227.179 87.5635 226.519 86.7442 226.363 85.7519C226.208 84.7595 226.526 83.9148 227.12 83.392C226.407 82.981 225.877 82.2497 225.817 81.2869C225.756 80.3241 226.286 79.4511 226.938 78.8994C226.32 78.5178 225.885 77.8161 226.014 76.9123C226.142 76.0086 226.767 75.1651 227.537 74.5555C226.954 74.2324 226.673 73.5313 226.991 72.6866C227.273 71.7834 228.051 70.9404 228.952 70.4188C228.464 70.1253 228.314 69.5122 228.727 68.697C229.198 67.8529 230.166 67.069 231.125 66.5184C230.674 66.2834 230.618 65.6998 231.279 64.9147C231.94 64.1297 233.061 63.3464 234.114 62.8254C233.699 62.6488 233.833 62.1242 234.684 61.3982C235.534 60.6722 236.786 59.9769 238.051 59.4275C237.826 59.31 237.834 59.0767 238.311 58.6118C238.487 58.5249 238.685 58.3507 238.941 58.1475C239.351 57.9448 239.783 57.6548 240.31 57.3943C230.025 80.4279 261.902 100.792 262.047 134.25C261.754 134.394 262.295 134.28 262.047 134.25L262.002 134.424Z" fill="#7FB812"/>
<path d="M238.802 75.1519C231.889 77.9018 229.404 87.4829 231.815 93.7809C233.299 87.036 234.403 80.7321 238.802 75.1519Z" fill="#4A8216"/>
<path d="M246.646 90.2994C239.658 93.6035 239.329 104.572 244.22 109.975C243.122 103.104 242.818 96.2704 246.646 90.2994Z" fill="#4A8216"/>
<path d="M256.245 106.278C250.54 107.951 249.844 116.756 253.925 120.507C253.639 115.265 253.514 110.849 256.245 106.278Z" fill="#4A8216"/>
<path d="M236.65 64.3507C243.824 65.6658 249.363 67.7657 254.724 72.7728C252.727 65.69 243.398 61.7091 236.65 64.3507Z" fill="#7FB812"/>
<path d="M242.578 81.0906C250.997 82.2885 257.73 84.982 263.759 91.0101C261.152 82.8779 250.543 78.422 242.578 81.0906Z" fill="#7FB812"/>
<path d="M251.434 96.8435C258.46 100.025 262.423 104.795 266.433 110.992C266.36 103.998 259.103 96.2691 251.434 96.8435Z" fill="#7FB812"/>
<path d="M239.297 23.4158C239.815 22.8395 240.307 22.3528 240.773 21.9555C241.095 21.7101 241.358 21.4958 241.561 21.3128C242.298 20.8491 242.662 20.8098 242.712 21.1638C243.764 19.7739 245.18 18.3447 246.417 17.542C247.714 16.7082 248.415 16.7191 248.566 17.2481C249.627 16.006 251.025 14.8141 252.304 14.2176C253.549 13.5628 254.352 13.7488 254.57 14.3943C255.638 13.3001 257.02 12.3456 258.281 11.9864C259.601 11.596 260.412 11.9298 260.604 12.6649C261.622 11.7496 263.011 10.9429 264.313 10.7899C265.616 10.6369 266.469 11.1768 266.72 11.8807C267.712 11.055 269.084 10.4856 270.369 10.5699C271.654 10.6542 272.574 11.3108 272.834 12.1625C273.8 11.4263 275.12 11.0359 276.447 11.3263C277.74 11.5585 278.609 12.3941 278.936 13.3624C279.817 12.7469 281.145 12.5043 282.421 12.9738C283.697 13.4433 284.573 14.4267 284.9 15.3951C285.79 14.9273 287.033 14.8055 288.283 15.3644C289.567 15.9817 290.418 17.0546 290.753 18.1708C291.583 17.7343 292.801 17.7019 294.033 18.4982C295.232 19.2362 296.184 20.4841 296.552 21.6586C297.323 21.2533 298.549 21.3687 299.756 22.2545C300.963 23.1403 301.796 24.4506 302.198 25.6834C302.969 25.2781 304.11 25.5142 305.232 26.5207C306.413 27.496 307.221 28.8958 307.598 30.2181C308.309 29.8439 309.391 30.1113 310.487 31.2073C311.643 32.2721 312.425 33.7613 312.802 35.0837C313.454 34.7407 314.476 35.0392 315.513 36.1664C316.609 37.2624 317.366 38.8411 317.776 40.2218C318.369 39.91 319.332 40.2397 320.31 41.3981C321.288 42.5564 322.044 44.1352 322.429 45.6054C323.022 45.2936 323.867 45.6856 324.844 46.844C325.763 48.0335 326.46 49.6435 326.845 51.1137C327.378 50.833 328.189 51.1668 329.048 52.3875C329.907 53.6082 330.605 55.2182 330.93 56.7195C331.371 56.4117 332.122 56.7767 332.889 57.9703C333.655 59.1639 334.234 60.8361 334.559 62.3375C334.966 61.9714 335.599 62.3987 336.272 63.5652C336.643 64.2067 336.928 64.969 337.213 65.7312C337.465 66.4351 337.657 67.1702 337.791 67.9365C301.544 38.8764 256.562 54.4011 239.22 23.6843L239.297 23.4158Z" fill="#4A8216"/>
<path d="M337.874 67.8408C337.221 68.191 336.568 68.5412 335.855 68.9232C335.05 69.2788 334.271 69.5445 333.577 69.6883C332.19 69.9759 331.509 69.7332 331.488 69.2885C330.122 70.0207 328.512 70.7321 327.092 70.9615C325.672 71.1909 324.898 70.9219 324.87 70.329C323.504 71.0612 321.827 71.6562 320.374 71.8274C318.921 71.9986 318.081 71.6132 317.994 71.0522C316.687 71.7526 314.918 72.3211 313.431 72.4341C311.945 72.5472 311.072 72.1036 310.952 71.4844C309.645 72.1848 307.902 72.6633 306.382 72.7182C304.83 72.7148 303.957 72.2713 303.803 71.5939C302.496 72.2943 300.779 72.6828 299.286 72.6476C297.7 72.5861 296.853 72.0525 296.667 71.3169C295.42 71.9854 293.669 72.3158 292.202 72.1906C290.643 72.039 289.763 71.4472 289.576 70.7117C288.355 71.2902 286.697 71.6469 285.223 71.3735C283.723 71.1901 282.836 70.4501 282.617 69.6563C281.455 70.203 279.823 70.4697 278.409 70.1644C276.994 69.8592 276.074 69.061 275.881 68.1772C274.778 68.692 273.233 68.8369 271.844 68.4416C270.456 68.0463 269.621 67.1263 269.487 66.2107C268.444 66.6937 267.018 66.7749 265.715 66.2577C264.412 65.7406 263.663 64.6986 263.496 63.7248C262.513 64.176 261.171 64.1353 260.013 63.4645C258.856 62.7937 258.166 61.72 258.052 60.5661C257.127 60.9854 255.905 60.8811 254.892 60.0565C253.82 59.2638 253.276 58.0364 253.22 56.8508C252.415 57.2064 251.311 57.0384 250.384 56.092C249.457 55.1456 249.058 53.7645 249.029 52.4888C248.283 52.8126 247.357 52.5491 246.575 51.449C245.826 50.4071 245.539 48.8141 245.628 47.4748C244.975 47.8249 244.195 47.4077 243.65 46.1803C243.106 44.9529 242.937 43.2962 243.079 41.7768C242.485 42.0951 241.883 41.5824 241.483 40.2013C241.117 38.8784 241.12 36.978 241.38 35.3949C240.905 35.6496 240.422 35.0732 240.201 33.5966C240.039 32.0882 240.219 30.0923 240.566 28.3873C240.269 28.5465 240.011 28.2293 239.943 27.43C239.929 27.1336 239.882 26.7789 239.894 26.3925C239.926 25.7678 239.984 25.0531 240.042 24.3384C257.154 55.0461 302.16 39.0514 338.086 67.8035C338.014 68.2218 338.316 67.5279 338.086 67.8035L337.874 67.8408Z" fill="#7FB812"/>
<path d="M256.54 43.2121C255.233 52.0571 264.225 61.7201 273.113 64.9416C266.002 58.5925 259.161 51.9542 256.54 43.2121Z" fill="#4A8216"/>
<path d="M279.121 46.2564C278.375 55.7907 290.049 64.7613 299.581 65.0904C290.95 61.0316 282.291 55.0769 279.121 46.2564Z" fill="#4A8216"/>
<path d="M244.548 37.5751C250.886 30.0169 257.886 24.8445 267.25 22.7457C258.211 20.8 247.523 28.3037 244.548 37.5751Z" fill="#7FB812"/>
<path d="M267.043 44.7533C274.155 35.7392 282.695 29.4383 293.621 27.3476C282.957 25.432 270.788 34.0294 267.043 44.7533Z" fill="#7FB812"/>
<path d="M291.299 47.0909C299.47 41.2587 307.885 40.4842 317.052 41.5066C309.524 36.6724 296.899 38.4777 291.299 47.0909Z" fill="#7FB812"/>
<path d="M153.62 -10.0221C153.039 -10.6332 152.548 -11.2263 152.06 -11.6703C151.724 -11.9849 151.45 -12.188 151.208 -12.3354C150.48 -12.7776 150.154 -12.6446 150.163 -12.197C148.932 -13.8291 147.433 -15.366 146.19 -16.1586C144.946 -16.9513 144.262 -16.741 144.249 -15.9016C143.083 -17.2731 141.591 -18.5116 140.384 -18.9502C139.178 -19.3888 138.469 -18.9358 138.428 -18.003C137.296 -19.1695 135.9 -20.0916 134.7 -20.2319C133.499 -20.3721 132.796 -19.6208 132.697 -18.6502C131.658 -19.6496 130.268 -20.2734 129.074 -20.1152C127.88 -19.9571 127.18 -19.0566 127.083 -17.9368C126.048 -18.787 124.782 -19.1878 123.563 -18.7871C122.344 -18.3863 121.678 -17.2809 121.494 -16.0299C120.552 -16.7129 119.231 -16.9269 118.077 -16.2655C116.892 -15.6598 116.111 -14.3297 115.927 -13.0787C115.016 -13.706 113.759 -13.6593 112.518 -12.8667C111.277 -12.074 110.499 -10.5948 110.257 -9.30607C109.349 -9.78421 108.123 -9.68176 106.916 -8.68423C105.71 -7.68669 104.873 -6.16972 104.511 -4.80549C103.635 -5.22791 102.471 -5.01404 101.205 -3.97877C99.9706 -2.88777 99.0745 -1.33306 98.6854 0.124633C97.8987 -0.279806 96.7075 0.027524 95.4135 1.15626C94.1195 2.285 93.1955 3.93321 92.7752 5.33518C92.0197 4.98647 90.8285 5.29377 89.5656 6.47824C88.3027 7.6627 87.2884 9.29293 86.8091 10.7326C86.0535 10.3839 84.9525 10.7093 83.6585 11.838C82.3645 12.9667 81.3503 14.597 80.7808 16.0187C80.0843 15.6322 78.9833 15.9575 77.6893 17.0863C76.3953 18.215 75.3189 19.7338 74.7183 21.0998C74.112 20.7313 73.011 21.0566 71.745 22.0919C70.4791 23.1272 69.4026 24.6459 68.771 25.9562C68.2237 25.55 67.1819 25.8376 65.8848 26.8171C64.6779 27.8147 63.5393 29.222 62.8766 30.4766C62.3605 30.1261 61.4057 30.2824 60.1677 31.2242C58.9888 32.1283 57.8783 33.4422 57.1845 34.6411C56.7274 34.2528 55.8628 34.4271 54.7119 35.2377C53.5611 36.0483 52.4785 37.2688 51.7536 38.4119C51.3868 38.0416 50.5813 38.1782 49.4895 38.951C48.8986 39.3285 48.4008 39.8731 47.9031 40.4177C47.4645 40.9245 47.0259 41.4314 46.6774 41.9562C93.6554 27.7471 143.227 36.2916 153.801 -9.98612L153.62 -10.0221Z" fill="#4A8216"/>
<path d="M48.9732 41.1905C49.5832 41.72 50.312 42.1763 50.9813 42.6691C51.8005 43.1451 52.6196 43.621 53.3766 43.9843C54.8597 44.6545 55.761 44.7023 55.9336 44.2938C57.2724 45.2795 59.0321 46.3075 60.6339 46.9045C62.2356 47.5014 63.1963 47.5126 63.3972 47.0112C64.736 47.9969 66.6144 48.9516 68.2445 49.4556C69.965 49.9793 70.9539 49.8975 71.2452 49.4158C72.6433 50.3649 74.4908 51.2633 76.2989 51.6574C78.0477 52.0882 79.1554 51.9331 79.475 51.3585C80.8421 52.2512 82.7771 53.02 84.5542 53.3578C86.3907 53.659 87.5267 53.411 87.8153 52.78C89.2106 53.5799 91.1147 54.2923 92.9794 54.5005C94.8131 54.6524 95.9774 54.3115 96.3253 53.6439C97.7207 54.4437 99.622 55.0068 101.425 55.1024C103.287 55.1613 104.417 54.6148 104.793 53.8542C106.158 54.5977 107.997 55.0482 109.766 54.9381C111.535 54.8281 112.693 54.1885 113.067 53.2787C114.369 53.9095 116.177 54.3036 117.912 53.988C119.647 53.6723 120.713 52.8638 121.087 51.9539C122.358 52.5284 124.073 52.7535 125.655 52.3055C127.297 51.8208 128.27 50.8433 128.61 49.7279C129.759 50.2263 131.381 50.2825 132.87 49.6654C134.329 48.9921 135.268 47.8089 135.545 46.5808C136.664 47.0229 138.133 46.9467 139.408 46.0846C140.773 45.2423 141.497 43.8141 141.713 42.4733C142.71 42.8394 144.027 42.6308 145.177 41.5434C146.328 40.456 146.928 38.8025 146.991 37.3293C147.898 37.6757 149.031 37.2784 149.967 35.946C150.903 34.6136 151.319 32.7714 151.289 31.1292C152.075 31.3995 153.055 30.8699 153.749 29.3854C154.442 27.9009 154.643 25.8136 154.52 24.0025C155.215 24.2531 155.984 23.6277 156.431 21.8418C156.91 20.1123 156.838 17.8166 156.562 15.8731C157.166 16.104 157.692 15.3265 157.897 13.3886C158.102 11.4506 157.846 8.96628 157.386 6.83405C157.901 7.04525 158.274 6.13538 158.176 4.08198C158.107 1.93562 157.608 -0.700753 156.965 -3.02169C157.299 -2.8499 157.44 -3.31472 157.387 -4.56536C157.32 -4.97659 157.28 -5.48076 157.21 -6.04129C157.044 -6.9201 156.906 -7.89187 156.678 -8.88334C145.968 37.2055 96.3286 27.6734 49.1202 41.0243C49.0663 41.3595 48.965 40.7427 49.1202 41.0243L48.9732 41.1905Z" fill="#7FB812"/>
<path d="M142.573 16.4448C141.374 28.1901 134.538 37.0091 126.578 43.9264C136.572 40.5628 145.168 28.0537 142.573 16.4448Z" fill="#4A8216"/>
<path d="M120.274 27.483C117.177 38.2747 106.981 44.8919 96.638 47.819C107.669 48.6851 121.235 39.0483 120.274 27.483Z" fill="#4A8216"/>
<path d="M92.5899 34.2373C89.5555 41.1031 82.3553 44.6418 74.7469 46.4748C82.8466 48.192 93.7386 41.9116 92.5899 34.2373Z" fill="#4A8216"/>
<path d="M148.338 5.34517C143.703 -5.9343 132.694 -11.9952 124.076 -7.05405C133.524 -7.2548 141.11 -2.83523 148.338 5.34517Z" fill="#7FB812"/>
<path d="M128.954 23.1719C124.11 10.9806 111.169 3.49369 99.6914 6.89662C111.503 7.73575 120.974 13.5096 128.954 23.1719Z" fill="#7FB812"/>
<path d="M104.611 31.871C99.003 22.8005 85.3513 21.7119 75.7751 25.5472C86.4971 25.165 96.0977 25.7127 104.611 31.871Z" fill="#7FB812"/>
</g>
<defs>
<filter id="filter0_d_88_155" x="42.6775" y="-95.7747" width="299.497" height="239.633" filterUnits="userSpaceOnUse" color-interpolation-filters="sRGB">
<feFlood flood-opacity="0" result="BackgroundImageFix"/>
<feColorMatrix in="SourceAlpha" type="matrix" values="0 0 0 0 0 0 0 0 0 0 0 0 0 0 0 0 0 0 127 0" result="hardAlpha"/>
<feOffset dy="4"/>
<feGaussianBlur stdDeviation="2"/>
<feComposite in2="hardAlpha" operator="out"/>
<feColorMatrix type="matrix" values="0 0 0 0 0 0 0 0 0 0 0 0 0 0 0 0 0 0 0.25 0"/>
<feBlend mode="normal" in2="BackgroundImageFix" result="effect1_dropShadow_88_155"/>
<feBlend mode="normal" in="SourceGraphic" in2="effect1_dropShadow_88_155" result="shape"/>
</filter>
</defs>
</svg>
