<svg width="218" height="354" viewBox="0 0 218 354" fill="none" xmlns="http://www.w3.org/2000/svg">
<g filter="url(#filter0_d_88_222)">
<path d="M-66.376 245.129C-29.9423 305.206 47.4319 323.47 106.444 285.922C165.456 248.375 183.759 169.235 147.326 109.158C110.892 49.0814 33.5177 30.8178 -25.4944 68.3653C-84.5065 105.913 -102.81 185.053 -66.376 245.129Z" fill="#80A158"/>
<path d="M-55.8737 235.518C-22.7502 290.136 47.594 306.74 101.244 272.604C154.895 238.468 171.535 166.519 138.412 111.901C105.288 57.2823 34.944 40.6782 -18.7064 74.8142C-72.3568 108.95 -88.9972 180.9 -55.8737 235.518Z" fill="#E8EDBC"/>
<path d="M48.694 156.487C47.9957 158.826 50.5801 160.702 52.4835 159.228L117.46 110.219C120.67 107.824 121.093 103.079 118.446 100.124C108.292 88.4589 95.907 79.6819 82.3022 73.9213C78.6504 72.3832 74.4614 74.2858 73.252 78.1561L48.694 156.487ZM0.772382 83.175L37.5642 155.77C38.6249 157.931 41.8321 157.345 42.1729 154.976L54.5781 73.8281C55.1946 69.8204 52.2697 66.2691 48.3136 66.044C33.5994 65.2944 18.5548 67.7673 4.32756 73.6757C0.627426 75.266 -1.05655 79.6116 0.772382 83.175ZM56.7236 169.682L136.169 181.55C140.093 182.14 143.603 179.122 143.862 175.085C144.739 160.069 142.46 144.748 136.805 130.294C135.281 126.535 131.037 124.86 127.525 126.76C111.96 135.072 71.9212 156.443 55.9894 164.989C53.8598 166.092 54.4043 169.358 56.7236 169.682ZM31.8812 159.402L-15.5431 93.6014C-17.8609 90.3504 -22.5086 89.965 -25.4314 92.6932C-36.9678 103.163 -45.6936 115.881 -51.4735 129.813C-53.017 133.553 -51.1921 137.807 -47.4089 139.003L29.1573 163.293C31.4441 163.983 33.3085 161.329 31.8812 159.402ZM52.4546 180.24L99.8789 246.04C102.197 249.291 106.844 249.677 109.767 246.948C121.304 236.479 130.029 223.761 135.809 209.829C137.353 206.089 135.528 201.835 131.745 200.639L55.1785 176.348C52.8918 175.659 51.0273 178.313 52.4546 180.24ZM27.6123 169.959L-51.8333 158.092C-55.7568 157.502 -59.2673 160.52 -59.5263 164.557C-60.4037 179.572 -58.1246 194.894 -52.4691 209.348C-50.9457 213.107 -46.701 214.782 -43.1893 212.882C-27.6242 204.57 12.4146 183.199 28.3464 174.653C30.476 173.55 29.9316 170.284 27.6123 169.959ZM83.5635 256.467L46.7717 183.872C45.711 181.71 42.5037 182.297 42.1629 184.666L29.7577 265.814C29.1412 269.821 32.0661 273.373 36.0222 273.598C50.7364 274.347 65.7811 271.874 80.0083 265.966C83.7084 264.376 85.3924 260.03 83.5635 256.467ZM35.6418 183.155C36.3401 180.815 33.7557 178.939 31.8523 180.414L-33.1241 229.423C-36.3342 231.818 -36.7571 236.563 -34.1104 239.517C-23.9564 251.183 -11.5713 259.96 2.03362 265.72C5.68541 267.258 9.87438 265.356 11.0837 261.486L35.6418 183.155Z" fill="#B4C43D"/>
<path d="M83.5473 256.546L78.7159 247.077C63.3551 251.814 47.4212 252.962 32.0245 250.671L29.6849 265.923C29.0685 269.928 31.9933 273.477 35.9491 273.702C50.6621 274.452 65.7056 271.981 79.9315 266.078C83.6314 264.489 85.315 260.146 83.4862 256.585L83.5473 256.546Z" fill="#9FBC24"/>
<path d="M104.883 235.257C101.828 237.205 98.7218 238.928 95.6385 240.551L99.8569 246.364C102.173 249.611 106.82 249.998 109.742 247.275C121.277 236.827 130.002 224.134 135.783 210.227C136.417 208.62 136.335 206.954 135.911 205.421C127.861 216.996 117.469 227.231 104.883 235.257Z" fill="#9FBC24"/>
<path d="M15.7531 246.624C0.915927 241.907 -12.8897 233.862 -24.6004 222.842L-33.1083 229.23C-36.3188 231.627 -36.7421 236.374 -34.0953 239.33C-23.9411 251.002 -11.5554 259.782 2.05035 265.545C5.70238 267.083 9.89183 265.179 11.1015 261.306L15.7154 246.562L15.7531 246.624Z" fill="#9FBC24"/>
</g>
<defs>
<filter id="filter0_d_88_222" x="-97.1174" y="36.8503" width="299.185" height="304.587" filterUnits="userSpaceOnUse" color-interpolation-filters="sRGB">
<feFlood flood-opacity="0" result="BackgroundImageFix"/>
<feColorMatrix in="SourceAlpha" type="matrix" values="0 0 0 0 0 0 0 0 0 0 0 0 0 0 0 0 0 0 127 0" result="hardAlpha"/>
<feOffset dx="12" dy="12"/>
<feGaussianBlur stdDeviation="12"/>
<feComposite in2="hardAlpha" operator="out"/>
<feColorMatrix type="matrix" values="0 0 0 0 0 0 0 0 0 0 0 0 0 0 0 0 0 0 0.55 0"/>
<feBlend mode="multiply" in2="BackgroundImageFix" result="effect1_dropShadow_88_222"/>
<feBlend mode="normal" in="SourceGraphic" in2="effect1_dropShadow_88_222" result="shape"/>
</filter>
</defs>
</svg>
