<svg width="198" height="234" viewBox="0 0 198 234" fill="none" xmlns="http://www.w3.org/2000/svg">
<g filter="url(#filter0_d_88_253)">
<path d="M39.4359 185.565C38.4021 193.05 116.507 219.753 180.562 157.695C240.979 99.1871 212.088 62.5862 176.935 68.3537C157.785 71.4793 150.427 89.3301 137.561 122.809C123.543 159.351 93.078 171.449 72.6759 175.913C52.2737 180.378 40.199 179.958 39.4359 185.565Z" fill="#D60000"/>
<path d="M191.174 68.4131C206.615 81.4975 206.737 111.153 165.318 151.167C120.33 194.623 68.7123 194.918 41.8195 188.575C55.1728 197.814 123.459 213.111 180.591 157.745C232.541 107.441 218.472 73.3263 191.125 68.4421L191.174 68.4131Z" fill="#BE0103"/>
<path d="M160.713 77.0723C171.082 56.5069 188.066 66.2961 192.6 50.5861C197.135 34.8761 181.429 26.9036 175.692 24.6986C169.955 22.4935 178.59 16.2375 184.03 12.6076C189.469 8.97776 210.279 33.5373 198.305 58.2936C196.979 61.0638 200.671 63.1631 205.135 67.116C212.044 73.1825 216.358 82.7737 215.174 91.3392C211.291 85.9181 206.16 80.8425 203.239 78.1523C202.036 77.0177 200.166 77.2048 199.138 78.4764C195.722 82.6209 188.744 90.9972 187.311 91.2542C185.372 91.5482 184.533 77.579 182.76 75.2635C180.987 72.9481 170.568 72.5353 160.713 77.0723Z" fill="#3D9F0E"/>
<path d="M140.98 139.341C163.749 104.072 170.805 81.3797 164.912 84.0241C155.427 90.8512 152.33 100.422 142.978 124.809C135.614 143.984 123.155 158.922 105.973 169.136C96.6005 174.707 85.8511 178.851 73.9686 181.422C69.8842 182.33 66.1125 182.987 62.7207 183.616C87.3586 181.72 117.614 175.494 140.98 139.341Z" fill="white"/>
<path d="M184.03 12.6077C183.444 12.9559 182.838 13.3819 182.233 13.8079C183.691 14.593 185.206 15.4758 186.809 16.5049C202.409 26.5222 200.55 52.401 195.356 60.1125C193.357 63.0845 199.456 65.0086 198 70.8948C195.999 79.0869 186.824 91.2133 187.379 91.1474C188.841 90.9392 195.82 82.563 199.206 78.3696C200.234 77.098 202.134 76.9597 203.308 78.0455C206.179 80.7648 211.311 85.8404 215.243 91.2324C216.378 82.6959 212.064 73.1048 205.204 67.0092C200.74 63.0563 197.048 60.957 198.374 58.1868C210.278 33.5374 189.421 9.00683 184.03 12.6077Z" fill="#32770E"/>
</g>
<defs>
<filter id="filter0_d_88_253" x="27.4258" y="0.249268" width="224.183" height="233.506" filterUnits="userSpaceOnUse" color-interpolation-filters="sRGB">
<feFlood flood-opacity="0" result="BackgroundImageFix"/>
<feColorMatrix in="SourceAlpha" type="matrix" values="0 0 0 0 0 0 0 0 0 0 0 0 0 0 0 0 0 0 127 0" result="hardAlpha"/>
<feOffset dx="12" dy="12"/>
<feGaussianBlur stdDeviation="12"/>
<feComposite in2="hardAlpha" operator="out"/>
<feColorMatrix type="matrix" values="0 0 0 0 0 0 0 0 0 0 0 0 0 0 0 0 0 0 0.55 0"/>
<feBlend mode="multiply" in2="BackgroundImageFix" result="effect1_dropShadow_88_253"/>
<feBlend mode="normal" in="SourceGraphic" in2="effect1_dropShadow_88_253" result="shape"/>
</filter>
</defs>
</svg>
