<svg width="168" height="226" viewBox="0 0 168 226" fill="none" xmlns="http://www.w3.org/2000/svg">
<g filter="url(#filter0_d_88_237)">
<path d="M140.425 40.7211L12.4764 105.338C21.9727 122.475 39.4031 141.242 55.5695 154.154C56.9125 152.906 63.7152 148.147 65.206 149.207C66.4838 150.115 66.9095 155.689 64.8335 160.742C103.475 185.152 148.888 190.069 189.181 177.501L140.425 40.7211Z" fill="#CC9F2F"/>
<path d="M74.5409 135.424C75.7 136.263 75.2681 139.368 74.0436 143.488C82.5348 147.013 91.1538 149.677 99.969 151.609C101.865 132.16 108.527 114.413 119.821 98.669C118.157 118.127 111.796 136.012 100.786 151.803C120.215 155.935 140.024 156.131 159.137 152.564C152.79 136.366 150.232 119.414 151.829 101.975C159.274 117.855 162.624 134.585 162.192 151.835C167.488 150.743 172.633 149.302 177.783 147.626L156.427 85.3561C142.702 89.9629 127.025 88.0701 114.224 78.8016C107.796 74.1483 102.832 68.0906 99.4718 61.4459L19.5944 101.524C28.3073 118.879 40.6513 134.571 56.5278 147.496C64.1119 140.43 72.2756 133.784 74.4882 135.386L74.5409 135.424ZM49.6645 117.096C60.96 100.558 75.9252 88.1872 94.0591 80.0176C82.7109 96.5173 67.8511 108.965 49.6645 117.096Z" fill="#F5DB5B"/>
<path d="M99.1037 61.5149C102.424 68.2132 107.369 74.1812 113.844 78.8741C126.636 88.1454 142.339 89.9886 156.018 85.4372L140.652 40.6812L99.1037 61.5149Z" fill="#F9F0BB"/>
<path d="M162.805 151.619C162.759 154.288 162.802 156.942 162.577 159.639C161.472 157.251 160.674 154.766 159.696 152.31C140.576 155.879 120.76 155.686 101.324 151.557C100.954 152.084 100.621 152.558 100.25 153.085C100.283 152.473 100.368 151.899 100.453 151.325C91.6875 149.432 83.0124 146.731 74.5178 143.208C73.3727 146.988 71.5615 151.717 69.5922 156.332C105.747 179.551 148.735 183.874 186.519 171.161L178.349 147.37C173.197 149.046 167.998 150.45 162.752 151.581L162.805 151.619Z" fill="#EACE54"/>
<path d="M119.877 98.5679C108.694 114.331 102.065 132.134 100.231 151.519C100.513 151.565 100.759 151.664 101.041 151.711C111.978 135.849 118.236 118.014 119.877 98.5679Z" fill="#F9F0BB"/>
<path d="M101.188 151.667C101.188 151.667 100.66 151.521 100.377 151.474C100.292 152.048 100.208 152.622 100.175 153.234C100.543 152.707 100.873 152.233 101.24 151.705L101.188 151.667Z" fill="#F9F0BB"/>
<path d="M93.6027 80.0744C75.6421 88.2905 60.8379 100.785 49.6396 117.251C67.6524 109.073 82.4045 96.5398 93.6027 80.0744Z" fill="#F9F0BB"/>
<path d="M152.169 101.708C150.57 119.15 153.119 136.106 159.446 152.309C160.467 152.097 161.525 151.832 162.546 151.62C162.982 134.367 159.644 117.632 152.221 101.747L152.169 101.708Z" fill="#F9F0BB"/>
<path d="M162.866 151.524C161.845 151.736 160.84 152.039 159.766 152.213C160.688 154.631 161.483 157.117 162.636 159.545C162.862 156.847 162.819 154.193 162.866 151.524Z" fill="#F9F0BB"/>
<path d="M65.0796 140.264C35.9824 123.611 19.4272 101.799 19.4272 101.799C28.2033 119.146 40.6265 134.814 56.5966 147.698C59.4225 145.034 62.3545 142.445 65.0425 140.317L65.0796 140.264Z" fill="#EACE54"/>
<path d="M16.3308 111.7C21.1113 118.561 18.3375 124.848 18.3375 124.848C18.3375 124.848 24.66 123.759 30.0453 129.634L16.3308 111.7Z" fill="#CC9F2F"/>
<path d="M76.7817 167.588C87.0558 172.376 90.9749 179.332 90.9749 179.332C96.1118 175.827 106.997 179.162 106.997 179.162L76.7284 167.55L76.7817 167.588Z" fill="#CC9F2F"/>
<path d="M150.008 184.102C158.562 183.578 166.166 188.434 166.166 188.434C166.166 188.434 171.048 182.545 181.002 179.317L149.954 184.065L150.008 184.102Z" fill="#CC9F2F"/>
</g>
<defs>
<filter id="filter0_d_88_237" x="0.476318" y="28.6813" width="224.705" height="195.752" filterUnits="userSpaceOnUse" color-interpolation-filters="sRGB">
<feFlood flood-opacity="0" result="BackgroundImageFix"/>
<feColorMatrix in="SourceAlpha" type="matrix" values="0 0 0 0 0 0 0 0 0 0 0 0 0 0 0 0 0 0 127 0" result="hardAlpha"/>
<feOffset dx="12" dy="12"/>
<feGaussianBlur stdDeviation="12"/>
<feComposite in2="hardAlpha" operator="out"/>
<feColorMatrix type="matrix" values="0 0 0 0 0 0 0 0 0 0 0 0 0 0 0 0 0 0 0.55 0"/>
<feBlend mode="multiply" in2="BackgroundImageFix" result="effect1_dropShadow_88_237"/>
<feBlend mode="normal" in="SourceGraphic" in2="effect1_dropShadow_88_237" result="shape"/>
</filter>
</defs>
</svg>
