<svg width="166" height="272" viewBox="0 0 166 272" fill="none" xmlns="http://www.w3.org/2000/svg">
<g filter="url(#filter0_d_88_203)">
<path d="M111.935 189.433C122.637 170.38 107.254 132.552 118.311 103.992C124.262 101.684 134.523 105.786 151.727 131.14C149.059 153.643 157.985 190.303 133.671 206.364C126.522 206.071 119.348 199.315 111.935 189.433Z" fill="#FFFBD9"/>
<path d="M147.745 150.775C147.951 169.108 149.411 192.666 129.488 205.408C130.915 205.944 132.299 206.322 133.672 206.363C157.986 190.302 149.06 153.642 151.728 131.139C150.906 129.88 150.028 128.722 149.228 127.541C147.382 134.615 147.651 145.736 147.745 150.775Z" fill="#FCEC9F"/>
<path d="M118.312 103.991C122.581 92.9595 129.141 84.4777 139.057 81.7376C167.155 73.8528 196.095 130.865 218.618 160.006C227.068 171.002 234.647 177.985 240.888 176.106C204.119 193.746 189.573 188.633 153.741 134.066C153.036 133.071 152.411 132.055 151.756 131.089C134.552 105.734 124.342 101.661 118.34 103.941L118.312 103.991Z" fill="#EAD039"/>
<path d="M17.9226 140.677C18.7828 126.6 25.3241 113.654 40.4274 109.373C66.3152 102.108 89.8026 159.714 111.913 189.354C119.326 199.236 126.552 206.02 133.65 206.285C130.273 208.51 126.238 210.365 121.424 211.716C82.592 222.613 63.671 176.881 50.2025 152.095C50.1298 151.988 50.0855 151.83 50.0128 151.723C46.6527 145.514 43.6408 140.697 40.7125 138.454C40.7125 138.454 40.7125 138.454 40.6115 138.397C32.7287 130.179 25.1317 130.566 17.872 140.649L17.9226 140.677Z" fill="#EAD039"/>
<path d="M17.9226 140.677C25.1824 130.594 32.7792 130.207 40.662 138.425C40.0618 137.955 39.4554 137.614 38.7922 137.375C23.7686 131.927 23.8305 162.944 42.1697 185.213C27.9861 185.489 16.5107 161.89 17.8436 140.699L17.9226 140.677Z" fill="#FFFBD9"/>
<path d="M34.7547 133.91C29.7125 134.601 26.3012 138.07 25.5297 141.692C22.7427 154.82 28.3259 177.902 42.2202 185.241C23.8526 163.023 23.819 131.955 38.8426 137.403C39.4553 137.614 40.0617 137.955 40.7125 138.454C38.7347 136.412 36.7604 134.837 34.8337 133.888L34.7547 133.91Z" fill="#FCEC9F"/>
</g>
<defs>
<filter id="filter0_d_88_203" x="5.73804" y="66.741" width="285.991" height="182.625" filterUnits="userSpaceOnUse" color-interpolation-filters="sRGB">
<feFlood flood-opacity="0" result="BackgroundImageFix"/>
<feColorMatrix in="SourceAlpha" type="matrix" values="0 0 0 0 0 0 0 0 0 0 0 0 0 0 0 0 0 0 127 0" result="hardAlpha"/>
<feOffset dx="12" dy="12"/>
<feGaussianBlur stdDeviation="12"/>
<feComposite in2="hardAlpha" operator="out"/>
<feColorMatrix type="matrix" values="0 0 0 0 0 0 0 0 0 0 0 0 0 0 0 0 0 0 0.55 0"/>
<feBlend mode="multiply" in2="BackgroundImageFix" result="effect1_dropShadow_88_203"/>
<feBlend mode="normal" in="SourceGraphic" in2="effect1_dropShadow_88_203" result="shape"/>
</filter>
</defs>
</svg>
