<svg width="85" height="187" viewBox="0 0 85 187" fill="none" xmlns="http://www.w3.org/2000/svg">
<g filter="url(#filter0_d_88_213)">
<path d="M25.6929 44.088C45.7886 56.8393 61.4814 128.084 33.8887 141.105C27.6473 142.985 20.0967 135.951 11.6187 125.005C52.66 90.8833 17.7108 39.0057 25.6929 44.088Z" fill="#FFFBD9"/>
<path d="M45.0682 111.618C44.5552 120.106 41.358 139.053 19.7753 143.152C21.1869 143.479 32.5183 141.534 33.8095 141.129C61.4022 128.107 45.6873 56.7839 25.6137 44.1115C24.3281 43.3229 24.1674 43.964 24.6485 45.8299C41.2913 61.2955 46.1662 93.6861 45.0682 111.618Z" fill="#FCEC9F"/>
<path d="M-88.6881 68.9913C-84.4191 57.9595 -77.8594 49.4777 -67.9431 46.7376C-39.8454 38.8528 -10.9053 95.8649 11.6185 125.006C20.0681 136.002 27.6471 142.985 33.8885 141.106C-2.88062 158.746 -17.4273 153.633 -53.2589 99.0657C-53.9636 98.0714 -54.5894 97.0551 -55.2436 96.0892C-72.4478 70.7344 -82.6585 66.6607 -88.6597 68.9407L-88.6881 68.9913Z" fill="#EAD039"/>
</g>
<defs>
<filter id="filter0_d_88_213" x="-100.688" y="31.741" width="185.417" height="154.438" filterUnits="userSpaceOnUse" color-interpolation-filters="sRGB">
<feFlood flood-opacity="0" result="BackgroundImageFix"/>
<feColorMatrix in="SourceAlpha" type="matrix" values="0 0 0 0 0 0 0 0 0 0 0 0 0 0 0 0 0 0 127 0" result="hardAlpha"/>
<feOffset dx="12" dy="12"/>
<feGaussianBlur stdDeviation="12"/>
<feComposite in2="hardAlpha" operator="out"/>
<feColorMatrix type="matrix" values="0 0 0 0 0 0 0 0 0 0 0 0 0 0 0 0 0 0 0.55 0"/>
<feBlend mode="multiply" in2="BackgroundImageFix" result="effect1_dropShadow_88_213"/>
<feBlend mode="normal" in="SourceGraphic" in2="effect1_dropShadow_88_213" result="shape"/>
</filter>
</defs>
</svg>
